<?xml version="1.0" encoding="UTF-8"?>
<svg id="Ebene_1" xmlns="http://www.w3.org/2000/svg" version="1.1" xmlns:cc="http://creativecommons.org/ns#" xmlns:dc="http://purl.org/dc/elements/1.1/" xmlns:rdf="http://www.w3.org/1999/02/22-rdf-syntax-ns#" xmlns:svg="http://www.w3.org/2000/svg" viewBox="0 0 304.16 72">
  <!-- Generator: Adobe Illustrator 30.5.0, SVG Export Plug-In . SVG Version: 2.1.4 Build 167)  -->
  <defs>
    <style>
      .st0 {
        fill: #fff;
      }

      .st1 {
        fill: #e20020;
      }
    </style>
  </defs>
  <path class="st0" d="M115.89,71.82h1.43v-10.76h-1.43s0,10.76,0,10.76Z"/>
  <path class="st0" d="M120.48,64.14h1.31v.96c.1-.11.19-.2.29-.29.2-.18.79-.64,1.57-.79.14-.03.35-.08.68-.08.79.01,1.26.21,1.56.41,1.05.72,1.01,2.01,1.01,3.16v4.31h-1.3v-4.31c-.01-.81,0-1.74-.74-2.26-.3-.21-.65-.29-1.01-.29-.27,0-1.15.05-1.69.85-.39.59-.38,1.28-.38,1.97v4.04h-1.31v-7.68"/>
  <path class="st0" d="M130.28,64.93h-1.17v-.79h1.17v-.76c-.01-.7-.01-1.33.38-1.92.22-.32.76-.94,1.77-.94.55,0,.92.2,1.11.32l-.29.7c-.25-.08-.37-.11-.63-.11-.1,0-.39,0-.64.18-.46.35-.4,1.04-.4,1.54v.99h1.75v.79h-1.75v6.89h-1.3v-6.89"/>
  <path class="st0" d="M137.8,65.1c-.66.32-1.28,1.17-1.28,2.85,0,1.55.52,2.42,1.1,2.8.19.12.52.27,1.05.27.65,0,1.59-.26,1.95-1.8.1-.43.15-.9.15-1.34,0-.23,0-.66-.13-1.19-.12-.43-.54-1.75-1.95-1.78-.16,0-.51,0-.88.18h0ZM140.08,64.26c.72.35,2.09,1.4,2.09,3.66s-1.31,4.08-3.54,4.08c-.71,0-1.18-.2-1.44-.32-1.44-.66-2.08-2.18-2.08-3.76,0-.26,0-.91.25-1.6.52-1.48,1.8-2.36,3.28-2.38.23,0,.82.03,1.44.32"/>
  <path class="st0" d="M144.77,64.14h1.31v1.16l.33-.43c.19-.26.53-.73.84-.87.1-.03.23-.06.33-.06.19,0,.3.05.38.06.23.09.53.29.92.7l-.61.88c-.09-.05-.55-.3-.97-.3s-.72.23-.91.6c-.33.59-.32,1.57-.32,2.22v3.72h-1.31v-7.68"/>
  <path class="st0" d="M150.97,64.14h1.31v.96c.13-.15.27-.33.6-.58.55-.4,1.05-.58,1.72-.58.32,0,1.1.03,1.76.7.22.21.29.34.38.46.17-.15.35-.3.55-.46.87-.62,1.5-.7,1.98-.7.16,0,.46,0,.84.14.25.08.77.32,1.13.96.4.7.38,1.48.38,2.25v4.53h-1.31v-4.46c0-.31,0-.6-.03-.88-.09-.78-.43-1.13-.72-1.29-.33-.2-.69-.21-.81-.21-.25,0-.95.05-1.41.67-.33.46-.36.87-.38,1.9v4.28h-1.3v-4.46c-.03-.73-.02-1.55-.62-2.06-.38-.32-.78-.34-.97-.34-.23,0-.95.06-1.4.7-.37.53-.37,1.16-.37,1.78v4.37h-1.31v-7.68"/>
  <path class="st0" d="M167.83,67.53c-.09.03-.93.26-1.44.58-.74.47-.84,1.11-.84,1.49,0,.09,0,.27.07.5.22.7.78.81,1.04.81.62,0,1.17-.52,1.49-1.07.56-.98.49-2.27.49-2.55l-.81.23h0ZM168.82,71.82c-.15-.41-.19-.59-.23-1.34-.17.21-1.07,1.52-2.39,1.52-1.21,0-2.01-1.07-2.01-2.29,0-.81.32-1.43.92-1.92.65-.52,1.6-.79,2.35-1.02l1.14-.38c-.02-.17-.04-.7-.41-1.08-.43-.47-.96-.47-1.17-.47-.13,0-.27,0-.52.06-.48.12-.98.46-1.07.53-.09.06-.19.14-.28.23l-.49-.7c.4-.38,1.21-1.02,2.59-1.02,1.52.01,2.25.81,2.48,1.45.19.52.18,1.2.18,1.74v2.24c0,1.39.03,1.71.32,2.45h-1.42"/>
  <path class="st0" d="M172.24,64.14h1.02v-1.87l1.32-.46-.02,2.33h1.91v.79h-1.92l-.03,4.07c0,.37,0,.72.04,1.08.04.31.17.95,1,.95.21,0,.53-.03.95-.27l.32.76c-.28.17-.79.49-1.62.49-.22,0-.75-.02-1.24-.4-.81-.64-.77-1.57-.77-2.51l.04-4.16h-1.01v-.79"/>
  <path class="st0" d="M178.87,64.14h1.31v7.68h-1.31v-7.68ZM180.36,61.67c0,.49-.36.88-.84.88-.2,0-.33-.08-.39-.11-.14-.08-.43-.3-.43-.78,0-.5.33-.87.81-.87.48-.01.85.35.85.87"/>
  <path class="st0" d="M185.48,65.1c-.66.32-1.28,1.17-1.28,2.85,0,1.55.52,2.42,1.1,2.8.19.12.52.27,1.05.27.65,0,1.59-.26,1.95-1.8.1-.43.14-.9.14-1.34,0-.23,0-.66-.13-1.19-.11-.43-.53-1.75-1.95-1.78-.16,0-.51,0-.88.18h0ZM187.76,64.26c.72.35,2.09,1.4,2.09,3.66s-1.31,4.08-3.54,4.08c-.71,0-1.18-.2-1.44-.32-1.44-.66-2.08-2.18-2.08-3.76,0-.26,0-.91.24-1.6.52-1.48,1.8-2.36,3.28-2.38.23,0,.82.03,1.44.32"/>
  <path class="st0" d="M192.45,64.14h1.32v.96c.1-.11.19-.2.29-.29.2-.18.79-.64,1.57-.79.15-.03.35-.08.68-.08.79.01,1.26.21,1.56.41,1.05.72,1.01,2.01,1.01,3.16v4.31h-1.3v-4.31c-.01-.81,0-1.74-.74-2.26-.3-.21-.65-.29-1.01-.29-.27,0-1.15.05-1.69.85-.39.59-.37,1.28-.37,1.97v4.04h-1.32v-7.68"/>
  <path class="st0" d="M206.94,64.14h1.31v7.68h-1.31v-7.68ZM208.43,61.67c0,.49-.36.88-.84.88-.2,0-.33-.08-.39-.11-.15-.08-.43-.3-.43-.78,0-.5.33-.87.81-.87.47-.01.85.35.85.87"/>
  <path class="st0" d="M211.33,64.14h1.31v.96c.1-.11.19-.2.29-.29.2-.18.79-.64,1.57-.79.14-.03.35-.08.68-.08.79.01,1.25.21,1.56.41,1.05.72,1.01,2.01,1.01,3.16v4.31h-1.3v-4.31c-.01-.81,0-1.74-.74-2.26-.3-.21-.65-.29-1.01-.29-.28,0-1.16.05-1.69.85-.39.59-.38,1.28-.38,1.97v4.04h-1.31v-7.68"/>
  <path class="st0" d="M230.41,67.18c-.01-.75-.11-1.54-.75-2-.14-.11-.45-.27-.91-.27-.22,0-.72.05-1.18.44-.69.6-.75,1.6-.77,1.83h3.61ZM231.54,71.1c-.87.58-1.56.9-2.6.9-.45,0-1.41-.03-2.31-.87-1.24-1.14-1.27-2.74-1.27-3.29,0-.44.01-1.49.71-2.49.34-.49,1.18-1.42,2.73-1.42.61.01.97.14,1.2.26.48.21,1.21.82,1.52,2.12.1.43.16.85.16,1.75h-4.91c0,.29,0,.76.26,1.4.58,1.39,1.72,1.57,2.22,1.57.4,0,1.11-.11,1.92-.69l.38.75"/>
  <path class="st0" d="M234.13,64.14h1.31v1.16l.33-.43c.19-.26.54-.73.84-.87.1-.03.23-.06.33-.06.19,0,.3.05.37.06.23.09.53.29.92.7l-.61.88c-.09-.05-.55-.3-.97-.3s-.72.23-.91.6c-.33.59-.32,1.57-.32,2.22v3.72h-1.31v-7.68"/>
  <path class="st0" d="M243.59,65.34c-.53-.43-1.07-.49-1.31-.49-.07,0-.23,0-.4.06-.35.11-.63.41-.63.81,0,.29.13.47.19.55.26.37.82.7,1.6,1.36.66.55,1.21,1.16,1.21,2.12,0,.17-.01.61-.23,1.03-.26.5-.91,1.22-2.21,1.22s-1.94-.64-2.31-.99l.65-.76c.46.44.89.79,1.54.78.22,0,.36-.01.55-.09.61-.24.67-.78.67-1.02,0-.47-.23-.75-.33-.87-.3-.35-.71-.62-1.06-.88-.26-.21-.53-.43-.79-.65-.19-.18-.75-.69-.77-1.55,0-.17.01-.47.19-.82.23-.46.85-1.17,2.11-1.19.98.01,1.57.44,1.86.7l-.52.7"/>
  <path class="st0" d="M245.93,64.14h1.03v-1.87l1.31-.46v2.33s1.89,0,1.89,0v.79h-1.92l-.03,4.07c0,.37,0,.72.04,1.08.04.31.17.95.99.95.22,0,.54-.03.95-.27l.32.76c-.27.17-.79.49-1.62.49-.22,0-.75-.02-1.24-.4-.81-.64-.77-1.57-.77-2.51l.04-4.16h-1.01v-.79"/>
  <path class="st0" d="M257.15,67.18c-.01-.75-.12-1.54-.75-2-.14-.11-.45-.27-.91-.27-.22,0-.72.05-1.18.44-.69.6-.75,1.6-.77,1.83h3.61ZM258.27,71.1c-.87.58-1.56.9-2.6.9-.45,0-1.41-.03-2.31-.87-1.24-1.14-1.27-2.74-1.27-3.29,0-.44.02-1.49.71-2.49.35-.49,1.18-1.42,2.73-1.42.61.01.97.14,1.2.26.48.21,1.21.82,1.52,2.12.1.43.16.85.16,1.75h-4.91c0,.29,0,.76.26,1.4.58,1.39,1.72,1.57,2.22,1.57.4,0,1.11-.11,1.92-.69l.37.75"/>
  <path class="st0" d="M260.86,64.14h1.31v1.16l.33-.43c.19-.26.53-.73.84-.87.1-.03.23-.06.33-.06.19,0,.3.05.38.06.23.09.53.29.92.7l-.61.88c-.09-.05-.55-.3-.97-.3s-.72.23-.91.6c-.33.59-.32,1.57-.32,2.22v3.72h-1.31v-7.68"/>
  <path class="st0" d="M272.15,61.06h1.43v9.68h4.17v1.08h-5.6v-10.76"/>
  <path class="st0" d="M280.04,64.14h1.31v7.68h-1.31v-7.68ZM281.53,61.67c0,.49-.36.88-.84.88-.2,0-.33-.08-.39-.11-.14-.08-.43-.3-.43-.78,0-.5.33-.87.81-.87.48-.01.85.35.85.87"/>
  <path class="st0" d="M284.43,64.14h1.31v.96c.1-.11.19-.2.29-.29.2-.18.79-.64,1.57-.79.15-.03.35-.08.68-.08.79.01,1.25.21,1.56.41,1.05.72,1.01,2.01,1.01,3.16v4.31h-1.3v-4.31c-.01-.81,0-1.74-.74-2.26-.3-.21-.65-.29-1.01-.29-.28,0-1.16.05-1.69.85-.39.59-.38,1.28-.38,1.97v4.04h-1.31v-7.68"/>
  <path class="st0" d="M293.93,64.14h1.31v7.68h-1.31v-7.68ZM295.42,61.67c0,.49-.36.88-.84.88-.2,0-.33-.08-.39-.11-.15-.08-.43-.3-.43-.78,0-.5.33-.87.81-.87.48-.01.85.35.85.87"/>
  <path class="st0" d="M302.91,67.18c-.01-.75-.11-1.54-.75-2-.14-.11-.45-.27-.91-.27-.22,0-.72.05-1.18.44-.69.6-.75,1.6-.77,1.83h3.61ZM304.03,71.1c-.87.58-1.56.9-2.6.9-.45,0-1.41-.03-2.31-.87-1.24-1.14-1.27-2.74-1.27-3.29,0-.44.01-1.49.71-2.49.35-.49,1.18-1.42,2.73-1.42.61.01.97.14,1.2.26.48.21,1.21.82,1.51,2.12.1.43.16.85.16,1.75h-4.91c0,.29,0,.76.26,1.4.58,1.39,1.72,1.57,2.22,1.57.4,0,1.11-.11,1.92-.69l.38.75"/>
  <path class="st0" d="M6.6,21.62h3.26c5.71,0,10.68-3.94,10.68-9.05,0-4.21-2.92-6.6-8.36-6.6h-5.58s0,15.64,0,15.64ZM6.6,44.06h6.39c5.37,0,10-2.92,10-8.64,0-6.66-5.71-9.04-11.08-9.04h-5.31v17.68ZM0,48.82V1.22h14.76c7.07,0,12.38,3.54,12.38,9.73,0,7.75-6.05,11.42-9.72,12.1v.14c6.26.2,12.65,4.08,12.65,11.83s-6.8,13.8-16.66,13.8H0"/>
  <path class="st0" d="M55.8,12.27c-1.2-4.2-3.66-8.73-8.93-8.73-3,0-6.46,1.87-6.46,6.8,0,4.66,4.46,6.99,11.72,12.52,6.8,5.13,8.93,8.86,8.93,13.92,0,8.19-8.13,12.59-17.66,12.59-5.53,0-9.19-.8-12.66-2.13-.27-.13-.47-.4-.47-.93v-10.13h1.8c1.13,6.06,4.93,10.79,10.59,10.79,4.33,0,8.19-3.53,8.19-8.39,0-4.4-1.93-7.4-11.26-13.46-5-3.2-9.13-6.86-9.13-12.72,0-6.6,6.33-11.26,15.52-11.26,4.33,0,7.6.13,10.93,1.06.47.2.67.6.67.93v9.13h-1.8"/>
  <path class="st0" d="M77.7,37.58h1.96c2.85,0,6.96-.06,6.96-3.98s-4.43-3.92-7.21-3.92h-1.71v7.9ZM79.28,19.62c2.53,0,5.37-.25,5.37-3.54,0-3.54-3.22-3.29-5.75-3.29h-1.2v6.83s1.58,0,1.58,0ZM70.06,1.29h11.75c9.23,0,18.65,2.21,18.65,13.22,0,4.17-2.09,8.28-6.26,9.61v.38c5.18,1.83,8.47,5.63,8.47,11.32,0,9.8-9.1,13.15-17.45,13.15h-15.16V1.29"/>
  <path class="st0" d="M119.15,17.46c0,2.6.53,3.34,2.99,3.34,2.66,0,3.94-1.63,3.94-4.56,0-3.58-2.25-4.85-5.03-4.85h-1.89v6.07ZM119.15,10.44h2.25c1.69,0,3.7-.98,3.7-4.41,0-2.93-1.42-4.05-4.26-4.05h-1.69s0,8.46,0,8.46ZM121.04,1.04c4.53,0,7.01,1.12,7.01,4.5,0,2.49-1.92,4.32-4.26,5v.06c3.14.09,5.65,2.13,5.65,5.24,0,4.14-3.17,5.92-7.52,5.92h-8.2v-.77c2.66-.33,2.54-.18,2.54-2.93V4.73c0-2.75.12-2.6-2.54-2.93v-.77h7.31"/>
  <path class="st0" d="M139.28,13.05c-2.6.98-5.65,1.69-5.65,4.71,0,1.39.92,2.51,2.28,2.51,1.54,0,3.37-1,3.37-4.91v-2.31ZM139.97,22.1c-.44-.53-.68-1.45-.68-2.34l-2.31,1.54c-.68.44-1.51.8-2.43.8-1.95,0-3.58-1.71-3.58-3.88,0-2.81,1.66-3.7,5.12-5.06l3.19-1.24c0-2.57-.68-4.29-2.52-4.29s-2.43,1.63-3.14,2.69c-.09.15-.21.15-.38.12l-1.01-.24c-.18-.06-.27-.18-.24-.38l.44-1.57c.18-.56.5-.8.86-.92,1.36-.53,2.37-.74,3.67-.74,3.46,0,4.97,1.54,4.97,4.76v6.57c0,1.51.09,2.78,2.07,2.01l.18.83-4.23,1.33"/>
  <path class="st0" d="M155.91,10.09c.89-2.13-.74-2.37-2.28-2.37v-.77h6.12v.77c-1.45,0-2.01,1.45-2.58,2.66l-7.87,16.86c-.56,1.16-.98,1.9-2.13,1.9h-2.19c-.24,0-.33-.3-.33-.56v-.5c0-.24,0-.47.36-.59l1.74-.62c1.15-.44,1.98-1.12,2.46-2.1l1.54-3.22-4.97-11.51c-.8-1.8-1.18-2.31-2.48-2.31v-.77h7.72v.77c-1.57,0-3.14-.24-2.37,1.84l3.55,8.76,3.7-8.23"/>
  <path class="st0" d="M168.25,12.54c.65,0,1.48-.41,1.48-1.72,0-1.89-1.45-3.2-3.11-3.2-1.98,0-3.9,1.18-3.9,4.91h5.53ZM162.72,13.58c0,3.37,1.57,6.84,5.8,6.84,1.63,0,2.6-.71,3.31-1.06l.47.92-3.88,1.84h-.92c-.74,0-3.22.39-5.62-2.25-.89-1.01-1.98-3.34-1.98-5.56,0-3.46,1.86-7.69,6.89-7.69,3.35,0,5.5,2.42,5.5,6.15v.83h-9.59"/>
  <path class="st0" d="M180.89,9.41c-.3-.15-.65-.12-1.09-.12-1.21,0-1.42,2.01-1.42,4.14v4.61c0,.98,0,1.39.12,2.1.12.62,1.18.68,2.78.83v.77h-7.93v-.77c2.51-.35,2.37-.27,2.37-2.93v-8.19c0-1.36-.92-1.24-2.34-1.24v-.77c1.6-.06,3.58-.41,4.94-1.24l.06.06v2.66l1.54-1.6c.71-.74,1.13-1.12,1.63-1.12.27,0,.62.03,1.1.89l.86,1.51c.09.18-.06.3-.24.41l-.86.56c-.18.12-.29.06-.44-.03l-1.07-.53"/>
  <path class="st0" d="M187.13,1.21c.94,0,1.74.8,1.74,1.72s-.8,1.75-1.72,1.75-1.75-.77-1.75-1.75.8-1.72,1.72-1.72ZM188.78,6.66v11.39c0,2.66-.15,2.58,2.36,2.93v.77h-7.4v-.77c2.52-.35,2.37-.27,2.37-2.93v-8.19c0-1.36-.92-1.24-2.37-1.24v-.77c1.63-.06,3.61-.41,4.97-1.24l.06.06"/>
  <path class="st0" d="M192.6,17.99h.77c-.03,2.07,1.51,3.08,3.22,3.08s2.72-1.3,2.72-2.54c0-1.92-1.54-2.6-3.31-3.88-2.4-1.75-3.37-2.22-3.37-4.17,0-2.49,2.31-3.88,4.73-3.88.94,0,2.13.06,3.49.5v2.96h-.77c-.09-1.01-.98-2.43-2.66-2.43-1.24,0-2.28.74-2.28,1.9,0,1.42,1.51,2.19,3.67,3.73,2.78,1.95,3.13,3.05,3.13,4.41,0,3.08-2.78,4.44-5.35,4.44-1.63,0-2.9-.27-4-.8v-3.31"/>
  <path class="st0" d="M215.68,20.24l-3.94,1.86c-.74,0-4.17.36-6.51-2.28-.95-1.04-1.98-3.34-1.98-5.53,0-4.67,3.58-7.69,7.96-7.69,1.1,0,2.66.21,3.64.77l1.03,1.98c.09.12.09.24,0,.3l-1.03.65c-.15.09-.33.12-.45.03l-1.51-1.75c-.42-.47-1.21-.95-2.34-.95-1.74,0-4.38,1.39-4.38,5.68,0,3.14,1.42,7.1,5.68,7.1,1.63,0,2.57-.71,3.32-1.1l.5.92"/>
  <path class="st0" d="M221.42.06v9.14c1.27-1.48,3.4-2.6,5.98-2.6,3.61,0,4.32,2.16,4.32,5.23v6.21c0,2.66-.15,2.58,2.37,2.93v.77h-7.4v-.77c2.51-.35,2.37-.27,2.37-2.93v-5.44c0-1.86-.12-4.47-3.26-4.47-3.79,0-4.38,3.25-4.38,6.3v3.61c0,2.66-.15,2.58,2.37,2.93v.77h-7.4v-.77c2.51-.35,2.36-.27,2.36-2.93V2.96c0-.8-.35-1.3-1.12-1.3h-1.24v-.77c1.77-.06,3.67-.41,4.97-.89l.06.06"/>
  <path class="st0" d="M243.47,12.54c.65,0,1.48-.41,1.48-1.72,0-1.89-1.45-3.2-3.11-3.2-1.98,0-3.91,1.18-3.91,4.91h5.53ZM237.94,13.58c0,3.37,1.57,6.84,5.8,6.84,1.63,0,2.6-.71,3.32-1.06l.47.92-3.88,1.84h-.92c-.74,0-3.23.39-5.62-2.25-.89-1.01-1.99-3.34-1.99-5.56,0-3.46,1.87-7.69,6.9-7.69,3.34,0,5.5,2.42,5.5,6.15v.83h-9.59"/>
  <path class="st0" d="M124.74,31.37c-1.01-.74-2.34-1.48-3.58-1.48-2.07,0-3.22,1.21-3.22,2.81,0,1.48,1.27,2.57,3.93,4.5,2.84,2.07,4.5,3.97,4.5,6.63,0,3.28-3.11,5.41-6.42,5.41-1.98,0-4.35-.71-5.83-2.16l1.27-1.72c1.21.86,2.55,1.8,4.5,1.8s3.61-1.09,3.61-3.4c0-2.6-3.11-4.29-4.79-5.53-1.72-1.33-3.64-2.6-3.64-5.53s2.69-4.88,5.92-4.88c2.16,0,3.97.77,5.12,2.07l-1.36,1.48"/>
  <path class="st0" d="M132.43,34.1h3.88v1.54h-3.88v8.37c0,2.07.41,3.32,2.04,3.32.98,0,1.54-.24,2.04-.5l.65,1.48c-.92.59-2.01.94-3.02.94-2.96,0-4.38-1.71-4.38-4.73v-8.88h-2.07v-1.54h2.07v-3.55l2.66-.89v4.44"/>
  <path class="st0" d="M143.68,40.96c-2.34.71-3.55,1.83-3.55,3.7,0,1.54,1.07,2.52,2.13,2.52,1.89,0,4.32-2.34,3.96-6.95l-2.55.74ZM145.27,47.29c-1.04,1.04-2.34,1.95-3.7,1.95-2.49,0-4.2-1.77-4.2-4.55,0-2.57,2.19-4.2,5.27-5.12l3.58-1.12c-.12-1.8-1.51-2.96-2.96-2.96-1.72,0-2.81.71-3.88,1.6l-1.04-1.33c1.48-1.42,2.99-2.01,5.06-2.01,2.22,0,5.47.71,5.47,5.03v6.51c0,1.12.15,2.54.65,3.61h-2.9c-.35-.62-.41-1.57-.41-2.51l-.95.92"/>
  <path class="st0" d="M157.5,40.96c-2.34.71-3.55,1.83-3.55,3.7,0,1.54,1.07,2.52,2.13,2.52,1.89,0,4.32-2.34,3.96-6.95l-2.54.74ZM159.1,47.29c-1.04,1.04-2.34,1.95-3.7,1.95-2.49,0-4.2-1.77-4.2-4.55,0-2.57,2.19-4.2,5.27-5.12l3.58-1.12c-.12-1.8-1.51-2.96-2.96-2.96-1.72,0-2.81.71-3.88,1.6l-1.03-1.33c1.48-1.42,2.99-2.01,5.06-2.01,2.22,0,5.47.71,5.47,5.03v6.51c0,1.12.15,2.54.65,3.61h-2.9c-.35-.62-.41-1.57-.41-2.51l-.94.92"/>
  <path class="st0" d="M169.31,34.1h3.88v1.54h-3.88v8.37c0,2.07.42,3.32,2.04,3.32.98,0,1.54-.24,2.04-.5l.65,1.48c-.92.59-2.01.94-3.02.94-2.96,0-4.38-1.71-4.38-4.73v-8.88h-2.07v-1.54h2.07v-3.55l2.66-.89v4.44"/>
  <path class="st0" d="M182.21,36.46c-1.07-.71-1.92-.95-2.72-.95-.95,0-2.16.44-2.16,1.69s1.36,1.87,3.05,3.14c1.9,1.45,3.14,2.66,3.14,4.74,0,2.49-2.46,4.17-5.18,4.17-1.69,0-3.58-.74-4.56-1.86l1.3-1.51c.86.8,2.01,1.48,3.2,1.48s2.51-.65,2.51-2.1c0-1.71-1.54-2.45-2.93-3.46-1.69-1.21-3.17-2.22-3.17-4.23,0-2.34,2.31-3.82,4.91-3.82,1.45,0,2.87.59,3.64,1.36l-1.03,1.36"/>
  <path class="st0" d="M188.96,37.05h1.42c2.48,0,4.64-1.72,4.64-3.94,0-1.84-1.27-2.87-3.64-2.87h-2.43v6.8ZM188.96,46.82h2.78c2.34,0,4.35-1.27,4.35-3.76,0-2.9-2.49-3.94-4.82-3.94h-2.31v7.69h0ZM186.09,48.89v-20.71h6.42c3.08,0,5.38,1.54,5.38,4.23,0,3.37-2.63,4.97-4.23,5.27v.06c2.72.09,5.5,1.77,5.5,5.15s-2.96,6.01-7.25,6.01h-5.83"/>
  <path class="st0" d="M201.45,29.21c0-.74.62-1.57,1.69-1.57s1.69.83,1.69,1.57c0,.8-.39,1.81-1.69,1.81s-1.69-1.01-1.69-1.81ZM204.47,34.1v14.79h-2.66v-14.79h2.66"/>
  <path class="st0" d="M219.23,41.08c0-2.69-1.36-5.44-4.11-5.44-3.02,0-4.65,2.34-4.65,6.15,0,2.84,1.3,5.56,4.61,5.56s4.14-3.58,4.14-6.27ZM207.81,27.14h2.66v9.26h.06c1.1-1.77,3.19-2.66,4.85-2.66,5.77,0,6.72,5.18,6.72,7.31,0,4.5-2.66,8.19-7.02,8.19-1.86,0-3.46-.88-4.56-2.31h-.06v1.95h-2.66v-21.75"/>
  <path class="st0" d="M224.5,48.89h2.66v-21.75h-2.66v21.75Z"/>
  <path class="st0" d="M230.21,29.21c0-.74.62-1.57,1.69-1.57s1.69.83,1.69,1.57c0,.8-.38,1.81-1.69,1.81s-1.69-1.01-1.69-1.81ZM233.23,34.1v14.79h-2.66v-14.79h2.66"/>
  <path class="st0" d="M238.49,41.32c0,2.78.94,6.04,4.41,6.04s4.44-3.25,4.44-6.04-1.09-5.68-4.44-5.68-4.41,3.02-4.41,5.68ZM235.62,41.32c0-4.79,3.55-7.57,7.28-7.57s7.31,2.78,7.31,7.57-2.93,7.93-7.31,7.93-7.28-3.34-7.28-7.93"/>
  <path class="st0" d="M255.9,34.1h3.88v1.54h-3.88v8.37c0,2.07.41,3.32,2.04,3.32.98,0,1.54-.24,2.04-.5l.65,1.48c-.92.59-2.01.94-3.02.94-2.96,0-4.38-1.71-4.38-4.73v-8.88h-2.07v-1.54h2.07v-3.55l2.66-.89v4.44"/>
  <path class="st0" d="M264.48,35.93c1.39-1.48,3.52-2.19,5.06-2.19,3.4,0,5.23,1.89,5.23,5.62v9.53h-2.66v-8.96c0-2.78-1.18-4.23-3.58-4.23-2.1,0-4.02,1.45-4.02,4.29v8.91h-2.66v-21.75h2.63v8.79"/>
  <path class="st0" d="M287.48,39.9c0-2.31-.98-4.26-3.31-4.26-2.84,0-3.96,2.37-4.05,4.26h7.37ZM279.93,41.67c-.03,2.96,2.07,5.68,5,5.68,1.36,0,3.02-.5,4.05-1.27l.77,1.45c-1.54,1.1-3.37,1.71-4.91,1.71-4.62,0-7.67-2.84-7.67-8.05s3.67-7.46,7.01-7.46c4.5,0,6.01,4.05,5.71,7.93h-9.97"/>
  <path class="st0" d="M292.21,27.14h2.66v12.93h.44l5.8-6.27,1.98,1.13-5.27,5.5,6.25,7.55-2.63,1.21-6.51-8.37h-.06v8.08h-2.66v-21.75"/>
  <path class="st1" d="M61.39,48.96h8.67V1.24h-8.67s0,47.72,0,47.72Z"/>
</svg>